<svg xmlns="http://www.w3.org/2000/svg" xmlns:xlink="http://www.w3.org/1999/xlink" width="30" zoomAndPan="magnify" viewBox="0 0 375 374.999991" height="30" preserveAspectRatio="xMidYMid meet" version="1.0"><defs><g/></defs><g fill="#ffffff" fill-opacity="1"><g transform="translate(58.88624, 293.123148)"><g><path d="M 38.5 -196.699219 L 39.199219 -196.699219 L 49.351562 -121.800781 L 68.597656 -3.851562 L 88.199219 -3.851562 L 107.800781 -121.800781 L 119.699219 -197.046875 L 120.398438 -197.046875 L 120.050781 -120.050781 L 124.949219 0 L 143.5 0 L 134.050781 -245.347656 L 111.300781 -245.347656 L 89.597656 -104.648438 L 79.097656 -33.949219 L 69.648438 -104.648438 L 48.300781 -245.347656 L 24.5 -245.347656 L 15.050781 0 L 32.898438 0 L 37.449219 -120.050781 Z M 38.5 -196.699219 "/></g></g></g><g fill="#ffffff" fill-opacity="1"><g transform="translate(215.684982, 293.123148)"><g><path d="M 90.300781 -16.449219 L 36.75 -16.449219 L 36.75 -245 L 18.199219 -245 L 18.199219 0 L 90.300781 0 Z M 90.300781 -16.449219 "/></g></g></g><path fill="#ffffff" d="M 187.5 375 C 83.910156 375 0 290.507812 0 187.5 C 0 84.492188 83.910156 0 187.5 0 C 291.089844 0 375 83.910156 375 187.5 C 375 291.089844 290.507812 375 187.5 375 Z M 187.5 11.574219 C 90.277344 11.574219 11.574219 90.277344 11.574219 187.5 C 11.574219 284.722656 90.277344 363.425781 187.5 363.425781 C 284.722656 363.425781 363.425781 284.722656 363.425781 187.5 C 363.425781 90.277344 284.144531 11.574219 187.5 11.574219 Z M 187.5 11.574219 " fill-opacity="1" fill-rule="nonzero"/></svg>